<svg width="20" height="20" viewBox="0 0 20 20" fill="none" xmlns="http://www.w3.org/2000/svg">
<path d="M8.506 3.40091C8.96063 3.13983 9.47574 3.00244 10 3.00244C10.5243 3.00244 11.0394 3.13983 11.494 3.40091L18.749 7.56691C18.8252 7.61073 18.8886 7.67388 18.9326 7.74999C18.9767 7.8261 18.9998 7.91248 18.9998 8.00041C18.9998 8.08834 18.9767 8.17472 18.9326 8.25083C18.8886 8.32694 18.8252 8.39009 18.749 8.43391L16 10.0119V14.4999C16.0001 14.5656 15.9873 14.6307 15.9622 14.6914C15.9372 14.7522 15.9004 14.8074 15.854 14.8539L15.852 14.8549L15.85 14.8579L15.843 14.8639L15.82 14.8859L15.74 14.9599C15.6423 15.0457 15.5419 15.1284 15.439 15.2079C15.0798 15.4837 14.6981 15.7289 14.298 15.9409C12.9745 16.6429 11.4981 17.0071 10 17.0009C8.50188 17.0071 7.02546 16.6429 5.702 15.9409C5.30219 15.7289 4.92086 15.4837 4.562 15.2079C4.43013 15.1061 4.30268 14.9987 4.18 14.8859C4.12503 14.8374 4.08066 14.7781 4.04969 14.7117C4.01871 14.6453 4.0018 14.5732 4 14.4999V10.0119L2 8.86391V13.4999C2 13.6325 1.94732 13.7597 1.85355 13.8535C1.75979 13.9472 1.63261 13.9999 1.5 13.9999C1.36739 13.9999 1.24021 13.9472 1.14645 13.8535C1.05268 13.7597 1 13.6325 1 13.4999V7.99991C0.999934 7.91013 1.02404 7.822 1.06979 7.74475C1.11554 7.66751 1.18124 7.604 1.26 7.56091L8.506 3.40091ZM11.494 12.5989C11.0394 12.86 10.5243 12.9974 10 12.9974C9.47574 12.9974 8.96063 12.86 8.506 12.5989L5 10.5859V14.2769C5.36413 14.5758 5.75706 14.8377 6.173 15.0589C7.053 15.5289 8.348 15.9999 10 15.9999C11.3336 16.0067 12.6483 15.6838 13.827 15.0599C14.243 14.8381 14.636 14.5755 15 14.2759V10.5859L11.494 12.5979V12.5989ZM10.996 4.26891C10.6929 4.09486 10.3495 4.00326 10 4.00326C9.65049 4.00326 9.30709 4.09486 9.004 4.26891L2.504 7.99991L9.004 11.7319C9.30709 11.906 9.65049 11.9976 10 11.9976C10.3495 11.9976 10.6929 11.906 10.996 11.7319L17.496 7.99991L10.996 4.26791V4.26891Z" fill="black" fill-opacity="0.25"/>
</svg>
