<svg width="26" height="25" viewBox="0 0 26 25" fill="none" xmlns="http://www.w3.org/2000/svg">
<path d="M22.2499 2.22925C22.6643 2.22925 23.0617 2.39387 23.3548 2.68689C23.6478 2.97992 23.8124 3.37735 23.8124 3.79175V16.2917C23.8124 16.7061 23.6478 17.1036 23.3548 17.3966C23.0617 17.6896 22.6643 17.8542 22.2499 17.8542H18.3437C17.8585 17.8542 17.38 17.9672 16.9461 18.1842C16.5122 18.4011 16.1347 18.7161 15.8437 19.1042L12.8749 23.0621L9.90616 19.1042C9.61507 18.7161 9.23762 18.4011 8.8037 18.1842C8.36978 17.9672 7.8913 17.8542 7.40616 17.8542H3.49991C3.08551 17.8542 2.68808 17.6896 2.39505 17.3966C2.10203 17.1036 1.93741 16.7061 1.93741 16.2917V3.79175C1.93741 3.37735 2.10203 2.97992 2.39505 2.68689C2.68808 2.39387 3.08551 2.22925 3.49991 2.22925H22.2499ZM3.49991 0.666748C2.67111 0.666748 1.87625 0.995988 1.2902 1.58204C0.704149 2.16809 0.374908 2.96295 0.374908 3.79175L0.374908 16.2917C0.374908 17.1206 0.704149 17.9154 1.2902 18.5015C1.87625 19.0875 2.67111 19.4167 3.49991 19.4167H7.40616C7.64873 19.4167 7.88797 19.4732 8.10493 19.5817C8.32189 19.6902 8.51062 19.8477 8.65616 20.0417L11.6249 23.9996C11.7705 24.1936 11.9592 24.3511 12.1761 24.4596C12.3931 24.5681 12.6323 24.6246 12.8749 24.6246C13.1175 24.6246 13.3567 24.5681 13.5737 24.4596C13.7906 24.3511 13.9794 24.1936 14.1249 23.9996L17.0937 20.0417C17.2392 19.8477 17.4279 19.6902 17.6449 19.5817C17.8618 19.4732 18.1011 19.4167 18.3437 19.4167H22.2499C23.0787 19.4167 23.8736 19.0875 24.4596 18.5015C25.0457 17.9154 25.3749 17.1206 25.3749 16.2917V3.79175C25.3749 2.96295 25.0457 2.16809 24.4596 1.58204C23.8736 0.995988 23.0787 0.666748 22.2499 0.666748L3.49991 0.666748Z" fill="black"/>
<path d="M5.06241 6.1355C5.06241 5.9283 5.14472 5.72958 5.29123 5.58307C5.43774 5.43656 5.63646 5.35425 5.84366 5.35425H19.9062C20.1134 5.35425 20.3121 5.43656 20.4586 5.58307C20.6051 5.72958 20.6874 5.9283 20.6874 6.1355C20.6874 6.3427 20.6051 6.54141 20.4586 6.68793C20.3121 6.83444 20.1134 6.91675 19.9062 6.91675H5.84366C5.63646 6.91675 5.43774 6.83444 5.29123 6.68793C5.14472 6.54141 5.06241 6.3427 5.06241 6.1355ZM5.06241 10.0417C5.06241 9.83455 5.14472 9.63583 5.29123 9.48932C5.43774 9.34281 5.63646 9.2605 5.84366 9.2605H19.9062C20.1134 9.2605 20.3121 9.34281 20.4586 9.48932C20.6051 9.63583 20.6874 9.83455 20.6874 10.0417C20.6874 10.2489 20.6051 10.4477 20.4586 10.5942C20.3121 10.7407 20.1134 10.823 19.9062 10.823H5.84366C5.63646 10.823 5.43774 10.7407 5.29123 10.5942C5.14472 10.4477 5.06241 10.2489 5.06241 10.0417ZM5.06241 13.948C5.06241 13.7408 5.14472 13.5421 5.29123 13.3956C5.43774 13.2491 5.63646 13.1667 5.84366 13.1667H13.6562C13.8634 13.1667 14.0621 13.2491 14.2086 13.3956C14.3551 13.5421 14.4374 13.7408 14.4374 13.948C14.4374 14.1552 14.3551 14.3539 14.2086 14.5004C14.0621 14.6469 13.8634 14.7292 13.6562 14.7292H5.84366C5.63646 14.7292 5.43774 14.6469 5.29123 14.5004C5.14472 14.3539 5.06241 14.1552 5.06241 13.948Z" fill="black"/>
</svg>
