<svg width="26" height="25" viewBox="0 0 26 25" fill="none" xmlns="http://www.w3.org/2000/svg">
<g clip-path="url(#clip0_305_611)">
<path d="M12.6292 23.4375C9.72834 23.4375 6.94635 22.2852 4.89517 20.234C2.84399 18.1828 1.69165 15.4008 1.69165 12.5C1.69165 9.59919 2.84399 6.8172 4.89517 4.76602C6.94635 2.71484 9.72834 1.5625 12.6292 1.5625C15.53 1.5625 18.312 2.71484 20.3631 4.76602C22.4143 6.8172 23.5667 9.59919 23.5667 12.5C23.5667 15.4008 22.4143 18.1828 20.3631 20.234C18.312 22.2852 15.53 23.4375 12.6292 23.4375ZM12.6292 25C15.9444 25 19.1238 23.683 21.468 21.3388C23.8122 18.9946 25.1292 15.8152 25.1292 12.5C25.1292 9.18479 23.8122 6.00537 21.468 3.66117C19.1238 1.31696 15.9444 0 12.6292 0C9.31394 0 6.13452 1.31696 3.79032 3.66117C1.44611 6.00537 0.12915 9.18479 0.12915 12.5C0.12915 15.8152 1.44611 18.9946 3.79032 21.3388C6.13452 23.683 9.31394 25 12.6292 25Z" fill="white"/>
<path d="M11.0667 17.9688C11.0667 17.7615 11.149 17.5628 11.2955 17.4163C11.442 17.2698 11.6407 17.1875 11.8479 17.1875H13.4104C13.6176 17.1875 13.8163 17.2698 13.9628 17.4163C14.1093 17.5628 14.1917 17.7615 14.1917 17.9688C14.1917 18.176 14.1093 18.3747 13.9628 18.5212C13.8163 18.6677 13.6176 18.75 13.4104 18.75H11.8479C11.6407 18.75 11.442 18.6677 11.2955 18.5212C11.149 18.3747 11.0667 18.176 11.0667 17.9688ZM7.94165 13.2812C7.94165 13.074 8.02396 12.8753 8.17047 12.7288C8.31699 12.5823 8.5157 12.5 8.7229 12.5H16.5354C16.7426 12.5 16.9413 12.5823 17.0878 12.7288C17.2343 12.8753 17.3167 13.074 17.3167 13.2812C17.3167 13.4885 17.2343 13.6872 17.0878 13.8337C16.9413 13.9802 16.7426 14.0625 16.5354 14.0625H8.7229C8.5157 14.0625 8.31699 13.9802 8.17047 13.8337C8.02396 13.6872 7.94165 13.4885 7.94165 13.2812ZM4.81665 8.59375C4.81665 8.38655 4.89896 8.18784 5.04547 8.04132C5.19199 7.89481 5.3907 7.8125 5.5979 7.8125H19.6604C19.8676 7.8125 20.0663 7.89481 20.2128 8.04132C20.3593 8.18784 20.4417 8.38655 20.4417 8.59375C20.4417 8.80095 20.3593 8.99966 20.2128 9.14618C20.0663 9.29269 19.8676 9.375 19.6604 9.375H5.5979C5.3907 9.375 5.19199 9.29269 5.04547 9.14618C4.89896 8.99966 4.81665 8.80095 4.81665 8.59375Z" fill="white"/>
</g>
<defs>
<clipPath id="clip0_305_611">
<rect width="25" height="25" fill="white" transform="translate(0.12915)"/>
</clipPath>
</defs>
</svg>
