<svg width="15" height="20" viewBox="0 0 15 20" fill="none" xmlns="http://www.w3.org/2000/svg">
    <path d="M14.6663 2.41668C14.486 2.3118 14.2633 2.3118 14.083 2.41668C13.3847 2.8041 12.5983 3.005 11.7998 3C10.6322 3.02582 9.50319 2.58145 8.66649 1.76668C7.70057 0.821172 6.39458 0.304531 5.04323 0.333359C3.95493 0.323945 2.89089 0.654922 1.99996 1.28004V1C1.99996 0.447734 1.55228 0 0.999982 0C0.447687 0 0 0.447695 0 1V19C0 19.5523 0.447687 20 0.999982 20C1.55224 20 1.99996 19.5523 1.99996 19V10.3333C2.11043 10.323 2.21566 10.2814 2.30328 10.2133C3.09631 9.6293 4.05844 9.32031 5.04323 9.33332C6.21298 9.30645 7.3444 9.75086 8.18318 10.5666C9.14726 11.5108 10.4507 12.0273 11.7998 12C12.8337 12.012 13.8478 11.7161 14.7131 11.15C14.8982 11.0216 15.0061 10.8085 14.9997 10.5833V3C15.0018 2.75969 14.8745 2.53684 14.6663 2.41668Z" fill="black"/>
</svg>
