<svg width="26" height="26" viewBox="0 0 26 26" fill="none" xmlns="http://www.w3.org/2000/svg">
<g opacity="0.9">
<path d="M13.0261 22.2796C18.2859 22.2796 22.5499 18.0156 22.5499 12.7557C22.5499 7.49589 18.2859 3.23193 13.0261 3.23193C7.76621 3.23193 3.50226 7.49589 3.50226 12.7557C3.50226 18.0156 7.76621 22.2796 13.0261 22.2796Z" stroke="black" stroke-width="1.19048" stroke-linecap="round" stroke-linejoin="round"/>
<path d="M10.0499 10.9698C10.7073 10.9698 11.2403 10.4368 11.2403 9.77934C11.2403 9.12186 10.7073 8.58887 10.0499 8.58887C9.39237 8.58887 8.85938 9.12186 8.85938 9.77934C8.85938 10.4368 9.39237 10.9698 10.0499 10.9698Z" fill="black"/>
<path d="M16.0022 10.9698C16.6597 10.9698 17.1927 10.4368 17.1927 9.77934C17.1927 9.12186 16.6597 8.58887 16.0022 8.58887C15.3448 8.58887 14.8118 9.12186 14.8118 9.77934C14.8118 10.4368 15.3448 10.9698 16.0022 10.9698Z" fill="black"/>
<path d="M9.45465 13.9463C10.1725 15.5332 11.363 16.3272 13.0261 16.3272C14.6892 16.3272 15.8797 15.5332 16.5975 13.9463" stroke="black" stroke-width="1.19048" stroke-linecap="round" stroke-linejoin="round"/>
</g>
</svg>
