<svg width="26" height="25" viewBox="0 0 26 25" fill="none" xmlns="http://www.w3.org/2000/svg">
    <path d="M21.6328 25H4.36719C3.07917 25 2.03125 23.9252 2.03125 22.604V9.99788C2.03125 9.53764 2.395 9.16449 2.84375 9.16449C3.29251 9.16449 3.65625 9.53764 3.65625 9.99788V22.604C3.65625 23.0061 3.97516 23.3332 4.36719 23.3332H21.6328C22.0249 23.3332 22.3438 23.0061 22.3438 22.604V9.99788C22.3438 9.53764 22.7075 9.16449 23.1563 9.16449C23.605 9.16449 23.9688 9.53764 23.9688 9.99788V22.604C23.9688 23.9251 22.9209 25 21.6328 25Z" fill="black"/>
    <path d="M25.1875 12.9145C24.9796 12.9145 24.7717 12.8331 24.613 12.6704L14.5081 2.30574C13.6766 1.45276 12.3235 1.45276 11.4919 2.30574L1.38703 12.6704C1.06975 12.9959 0.555281 12.9959 0.237999 12.6704C-0.0793331 12.345 -0.0793331 11.8173 0.237999 11.4919L10.3429 1.12711C11.808 -0.375704 14.192 -0.375704 15.6571 1.12711L25.762 11.4918C26.0793 11.8173 26.0793 12.3449 25.762 12.6704C25.6034 12.8331 25.3955 12.9145 25.1875 12.9145Z" fill="black"/>
    <path d="M16.25 25H9.75C9.30125 25 8.9375 24.6268 8.9375 24.1666V16.7702C8.9375 15.3342 10.0765 14.1659 11.4766 14.1659H14.5234C15.9235 14.1659 17.0625 15.3342 17.0625 16.7702V24.1666C17.0625 24.6268 16.6988 25 16.25 25ZM10.5625 23.3332H15.4375V16.7702C15.4375 16.2533 15.0274 15.8327 14.5234 15.8327H11.4766C10.9726 15.8327 10.5625 16.2533 10.5625 16.7702V23.3332Z" fill="black"/>
</svg>
