<svg width="26" height="25" viewBox="0 0 26 25" fill="none" xmlns="http://www.w3.org/2000/svg">
    <path d="M25.762 11.4918L15.6574 1.12703C14.1918 -0.375677 11.8082 -0.375677 10.3426 1.12703L0.238039 11.4918C-0.0793465 11.8173 -0.0793465 12.345 0.238039 12.6705C0.554917 12.9961 1.06984 12.9961 1.38672 12.6705L2.03114 12.0095V22.604C2.03114 23.9273 3.07699 25 4.3671 25H8.42964C8.71011 25 8.93746 24.7668 8.93746 24.4791V16.7703C8.93746 15.3319 10.0743 14.1659 11.4765 14.1659H14.5235C15.9257 14.1659 17.0625 15.3319 17.0625 16.7703V24.4791C17.0625 24.7668 17.2899 25 17.5704 25H21.6329C22.923 25 23.9689 23.9273 23.9689 22.604V12.0095L24.6133 12.6705C24.7717 12.833 24.9799 12.9148 25.1876 12.9148C25.3953 12.9148 25.6035 12.833 25.762 12.6705C26.0793 12.345 26.0793 11.8173 25.762 11.4918Z" fill="#C300FF"/>
</svg>
