<svg width="31" height="31" viewBox="0 0 31 31" fill="none" xmlns="http://www.w3.org/2000/svg">
<path d="M15.321 2.99854C22.226 2.99854 27.8235 8.59604 27.8235 15.501C27.8235 22.4048 22.226 28.0023 15.321 28.0023C8.41604 28.0023 2.82105 22.4048 2.82105 15.501C2.8198 8.59604 8.41604 2.99854 15.321 2.99854ZM15.321 4.87354C13.9158 4.85829 12.5215 5.12191 11.2188 5.64913C9.91614 6.17634 8.73096 6.95668 7.73187 7.94499C6.73278 8.9333 5.93963 10.11 5.39832 11.4068C4.85701 12.7037 4.57829 14.0951 4.57829 15.5004C4.57829 16.9057 4.85701 18.2971 5.39832 19.594C5.93963 20.8909 6.73278 22.0675 7.73187 23.0558C8.73096 24.0441 9.91614 24.8245 11.2188 25.3517C12.5215 25.8789 13.9158 26.1425 15.321 26.1273C18.1111 26.0845 20.7723 24.9461 22.7302 22.958C24.6881 20.9698 25.7855 18.2914 25.7855 15.501C25.7855 12.7107 24.6881 10.0323 22.7302 8.04411C20.7723 6.05595 18.1111 4.91758 15.321 4.87479V4.87354ZM15.316 13.6235C15.5428 13.6232 15.762 13.7052 15.933 13.8541C16.104 14.003 16.2152 14.2089 16.246 14.4335L16.2548 14.561L16.2598 21.4385C16.2622 21.6778 16.1731 21.9089 16.0107 22.0845C15.8483 22.2602 15.6249 22.3671 15.3862 22.3834C15.1475 22.3997 14.9116 22.3241 14.7269 22.1722C14.5421 22.0202 14.4224 21.8034 14.3923 21.566L14.3848 21.4398L14.3798 14.5623C14.3798 14.3136 14.4786 14.0752 14.6544 13.8994C14.8302 13.7236 15.0687 13.6248 15.3173 13.6248L15.316 13.6235ZM15.3223 9.25229C15.4895 9.24699 15.6561 9.27536 15.8122 9.3357C15.9682 9.39604 16.1106 9.48713 16.2307 9.60355C16.3509 9.71997 16.4464 9.85936 16.5117 10.0134C16.5769 10.1675 16.6105 10.3331 16.6105 10.5004C16.6105 10.6677 16.5769 10.8333 16.5117 10.9874C16.4464 11.1415 16.3509 11.2808 16.2307 11.3973C16.1106 11.5137 15.9682 11.6048 15.8122 11.6651C15.6561 11.7255 15.4895 11.7538 15.3223 11.7485C14.9981 11.7383 14.6906 11.6023 14.4649 11.3693C14.2392 11.1364 14.113 10.8248 14.113 10.5004C14.113 10.1761 14.2392 9.86444 14.4649 9.63149C14.6906 9.39854 14.9981 9.26255 15.3223 9.25229Z" fill="white"/>
</svg>
