<svg width="39" height="39" viewBox="0 0 39 39" fill="none" xmlns="http://www.w3.org/2000/svg">
<path d="M31.0127 19.7247V16.6538H28.6377V20.2163C28.6378 20.5312 28.7629 20.8332 28.9856 21.0559L32.2002 24.2704V26.1538H6.0752V24.2704L9.28976 21.0559C9.51247 20.8332 9.63763 20.5312 9.6377 20.2163V15.4663C9.63439 13.7976 10.0715 12.1576 10.9049 10.7119C11.7382 9.26625 12.9384 8.06609 14.384 7.23267C15.8297 6.39925 17.4697 5.96208 19.1383 5.96533C20.807 5.96859 22.4453 6.41214 23.8877 7.25118V4.59712C22.7573 4.09661 21.555 3.77761 20.3252 3.65187V1.21631H17.9502V3.65068C15.0225 3.94867 12.3093 5.32163 10.3352 7.5041C8.36111 9.68657 7.26638 12.5235 7.2627 15.4663V19.7247L4.04813 22.9392C3.82542 23.1619 3.70026 23.4639 3.7002 23.7788V27.3413C3.7002 27.6563 3.82531 27.9583 4.04801 28.181C4.27071 28.4037 4.57275 28.5288 4.8877 28.5288H13.2002V29.7163C13.2002 31.291 13.8258 32.8013 14.9392 33.9148C16.0527 35.0283 17.563 35.6538 19.1377 35.6538C20.7124 35.6538 22.2226 35.0283 23.3361 33.9148C24.4496 32.8013 25.0752 31.291 25.0752 29.7163V28.5288H33.3877C33.7026 28.5288 34.0047 28.4037 34.2274 28.181C34.4501 27.9583 34.5752 27.6563 34.5752 27.3413V23.7788C34.5751 23.4639 34.45 23.1619 34.2273 22.9392L31.0127 19.7247ZM22.7002 29.7163C22.7002 30.6611 22.3249 31.5673 21.6568 32.2354C20.9887 32.9035 20.0825 33.2788 19.1377 33.2788C18.1929 33.2788 17.2867 32.9035 16.6186 32.2354C15.9505 31.5673 15.5752 30.6611 15.5752 29.7163V28.5288H22.7002V29.7163Z" fill="white"/>
<path d="M31.0127 14.2788C33.636 14.2788 35.7627 12.1522 35.7627 9.52881C35.7627 6.90546 33.636 4.77881 31.0127 4.77881C28.3893 4.77881 26.2627 6.90546 26.2627 9.52881C26.2627 12.1522 28.3893 14.2788 31.0127 14.2788Z" fill="#91E5E5"/>
</svg>
