<svg width="20" height="20" viewBox="0 0 20 20" fill="none" xmlns="http://www.w3.org/2000/svg">
    <g clip-path="url(#clip0)">
        <path d="M10 20C7.32891 20 4.8177 18.9598 2.92891 17.0711C1.0402 15.1823 0 12.6711 0 10C0 7.32891 1.0402 4.8177 2.92891 2.92891C4.8177 1.0402 7.32891 0 10 0C12.6711 0 15.1823 1.0402 17.0711 2.92891C18.9598 4.8177 20 7.32891 20 10C20 12.6711 18.9598 15.1823 17.0711 17.0711C15.1823 18.9598 12.6711 20 10 20ZM10 1.5625C5.34754 1.5625 1.5625 5.34754 1.5625 10C1.5625 14.6525 5.34754 18.4375 10 18.4375C14.6525 18.4375 18.4375 14.6525 18.4375 10C18.4375 5.34754 14.6525 1.5625 10 1.5625ZM13.6466 13.4427C13.7722 13.3168 13.9593 13.239 14.1352 13.2421C14.305 13.2441 14.48 13.3191 14.6034 13.4427C14.9083 13.748 15.4029 13.7483 15.7082 13.4435C16.0136 13.1386 16.0139 12.6439 15.709 12.3386C15.2977 11.9268 14.7308 11.6866 14.1537 11.6798C13.5537 11.6743 12.9662 11.9128 12.541 12.3386C12.3934 12.4864 12.2179 12.5782 12.0829 12.5782C11.9468 12.5782 11.7706 12.4864 11.6231 12.3386C11.2092 11.9242 10.6375 11.684 10.0545 11.6798C10.0492 11.6798 10.0439 11.6797 10.0386 11.6797C9.45012 11.6797 8.87371 11.9193 8.455 12.3386C8.32805 12.4657 8.16027 12.5388 7.99477 12.5391C7.99445 12.5391 7.9941 12.5391 7.99383 12.5391C7.8284 12.5391 7.66625 12.4679 7.53715 12.3386C7.11262 11.9134 6.52684 11.6738 5.92523 11.6798C5.3482 11.686 4.78102 11.9261 4.36906 12.3386C4.06418 12.6439 4.06453 13.1386 4.36984 13.4435C4.67516 13.7483 5.1698 13.748 5.47469 13.4427C5.59828 13.3189 5.77297 13.244 5.94207 13.2421C5.94422 13.2421 5.94637 13.2421 5.94852 13.2421C6.12313 13.2421 6.30762 13.3186 6.43152 13.4427C6.85594 13.8677 7.41055 14.1016 7.99379 14.1016H7.99742C8.57367 14.1006 9.14348 13.8604 9.5607 13.4427C9.68543 13.3178 9.86996 13.2429 10.0432 13.2422C10.2136 13.2434 10.3953 13.3202 10.5175 13.4427C10.9604 13.8862 11.531 14.1406 12.0829 14.1406C12.6337 14.1406 13.2037 13.8862 13.6466 13.4427ZM6.5625 6.44531C7.10184 6.44531 7.53906 6.88254 7.53906 7.42188C7.53906 7.96121 7.10184 8.39844 6.5625 8.39844C6.02316 8.39844 5.58594 7.96121 5.58594 7.42188C5.58594 6.88254 6.02316 6.44531 6.5625 6.44531ZM12.4219 7.42188C12.4219 7.96121 12.8591 8.39844 13.3984 8.39844C13.9378 8.39844 14.375 7.96121 14.375 7.42188C14.375 6.88254 13.9378 6.44531 13.3984 6.44531C12.8591 6.44531 12.4219 6.88254 12.4219 7.42188Z" fill="black"/>
    </g>
    <defs>
        <clipPath id="clip0">
            <rect width="20" height="20" fill="white"/>
        </clipPath>
    </defs>
</svg>
