<svg width="26" height="26" viewBox="0 0 26 26" fill="none" xmlns="http://www.w3.org/2000/svg">
<path d="M20.1261 20.8277L17.5886 18.2884C16.3367 19.2629 14.7948 19.7909 13.2083 19.7884C11.6217 19.7909 10.0798 19.2629 8.82789 18.2884L6.29039 20.8277C8.22267 22.4661 10.6748 23.3637 13.2083 23.3598C15.8458 23.3598 18.2618 22.4062 20.1261 20.8277ZM21.3904 19.5634C23.0288 17.6311 23.9264 15.1789 23.9225 12.6455C23.9225 10.008 22.969 7.59194 21.3904 5.72765L18.8511 8.26515C19.7904 9.47586 20.3511 10.9955 20.3511 12.6455C20.3511 14.2955 19.7904 15.8152 18.8511 17.0259L21.3904 19.5634ZM20.1261 4.46337C18.1938 2.82492 15.7417 1.92735 13.2083 1.93122C10.5708 1.93122 8.15468 2.88479 6.29039 4.46337L8.82789 7.00265C10.0798 6.02809 11.6217 5.5001 13.2083 5.50265C14.8583 5.50265 16.3779 6.06336 17.5886 7.00265L20.1261 4.46337ZM5.02611 5.72765C3.38766 7.65993 2.4901 10.1121 2.49397 12.6455C2.49397 15.283 3.44754 17.6991 5.02611 19.5634L7.56539 17.0259C6.59084 15.7739 6.06285 14.2321 6.06539 12.6455C6.06539 10.9955 6.62611 9.47586 7.56539 8.26515L5.02611 5.72765ZM16.669 16.7348C16.8953 16.5428 17.1055 16.3326 17.2975 16.1062C18.0886 15.1723 18.5654 13.9634 18.5654 12.6455C18.5668 11.8668 18.3978 11.0972 18.0702 10.3908C17.7426 9.68433 17.2643 9.05816 16.669 8.55622C15.7025 7.73609 14.4758 7.28666 13.2083 7.28836C12.4295 7.28692 11.66 7.45593 10.9535 7.78355C10.2471 8.11116 9.6209 8.58944 9.11897 9.18479C8.32789 10.1187 7.85111 11.3277 7.85111 12.6455C7.84966 13.4242 8.01868 14.1938 8.34629 14.9002C8.67391 15.6067 9.15218 16.2329 9.74754 16.7348C10.6815 17.5259 11.8904 18.0027 13.2083 18.0027C14.5279 18.0027 15.735 17.5259 16.669 16.7348ZM13.2083 25.1455C9.89305 25.1455 6.71362 23.8285 4.36942 21.4843C2.02521 19.1401 0.708252 15.9607 0.708252 12.6455C0.708252 9.3303 2.02521 6.15088 4.36942 3.80667C6.71362 1.46247 9.89305 0.145508 13.2083 0.145508C16.5235 0.145508 19.7029 1.46247 22.0471 3.80667C24.3913 6.15088 25.7083 9.3303 25.7083 12.6455C25.7083 15.9607 24.3913 19.1401 22.0471 21.4843C19.7029 23.8285 16.5235 25.1455 13.2083 25.1455Z" fill="black"/>
</svg>
