<svg width="29" height="29" viewBox="0 0 29 29" fill="none" xmlns="http://www.w3.org/2000/svg">
<path d="M14.0416 3.17627C7.59811 3.17627 2.37494 8.39944 2.37494 14.8429C2.37494 21.2864 7.59811 26.5096 14.0416 26.5096C20.4851 26.5096 25.7083 21.2864 25.7083 14.8429C25.7083 8.39944 20.4851 3.17627 14.0416 3.17627Z" stroke="black" stroke-width="1.75" stroke-linecap="round" stroke-linejoin="round"/>
<path d="M5.02444 22.2467C5.02444 22.2467 7.62494 18.9264 14.0416 18.9264C20.4583 18.9264 23.0599 22.2467 23.0599 22.2467H5.02444ZM14.0416 14.843C14.9699 14.843 15.8601 14.4743 16.5165 13.8179C17.1729 13.1615 17.5416 12.2713 17.5416 11.343C17.5416 10.4148 17.1729 9.52452 16.5165 8.86814C15.8601 8.21177 14.9699 7.84302 14.0416 7.84302C13.1134 7.84302 12.2231 8.21177 11.5667 8.86814C10.9104 9.52452 10.5416 10.4148 10.5416 11.343C10.5416 12.2713 10.9104 13.1615 11.5667 13.8179C12.2231 14.4743 13.1134 14.843 14.0416 14.843V14.843Z" stroke="black" stroke-width="1.75" stroke-linecap="round" stroke-linejoin="round"/>
</svg>
