<svg width="22" height="18" viewBox="0 0 22 18" fill="none" xmlns="http://www.w3.org/2000/svg">
    <path d="M21.6207 8.36326H16.7693V7.51769C16.7691 7.39419 16.6952 7.28036 16.5759 7.21985L11.3793 4.58387V3.24192H12.4073V3.752C12.4073 3.94105 12.5771 4.09433 12.7866 4.09433H15.8856C16.095 4.09425 16.2648 3.94092 16.2647 3.75187C16.2647 3.71224 16.257 3.67292 16.2421 3.6356L15.9311 2.83796L16.2459 2.05744C16.3171 1.87964 16.2152 1.68339 16.0182 1.61912C15.9769 1.60564 15.9333 1.59875 15.8893 1.59871H14.4783V1.10232C14.4783 0.913265 14.3085 0.759985 14.099 0.759985H11.3793V0.342335C11.3793 0.153281 11.2095 0 11 0C10.7905 0 10.6207 0.153281 10.6207 0.342335V4.58387L5.42415 7.21643C5.30486 7.27694 5.23094 7.39077 5.2307 7.51426V8.35983H0.379311C0.169837 8.35983 0 8.51311 0 8.70217V17.6577C0 17.8467 0.169837 18 0.379311 18H21.6207C21.8302 18 22 17.8467 22 17.6577V8.70559C22 8.51654 21.8302 8.36326 21.6207 8.36326ZM14.4783 2.89958L14.4631 2.88589V2.29707H15.328L15.1724 2.73526C15.1414 2.81152 15.1414 2.89522 15.1724 2.97147L15.3507 3.40966H13.1659V3.24192H14.099C14.3085 3.24192 14.4783 3.08864 14.4783 2.89958ZM11.3793 1.44466H13.7197V1.95474V2.55725H11.3793V1.44466ZM5.2307 17.3153H0.758622V9.04793H5.2307V17.3153ZM10.6207 17.3153H8.62933V13.4059H10.6207V17.3153ZM13.3707 17.3153H11.3793V13.4059H13.3707V17.3153ZM16.0259 17.3153H14.1293V13.0635C14.1293 12.8745 13.9595 12.7212 13.75 12.7212H8.25002C8.04054 12.7212 7.87071 12.8745 7.87071 13.0635V17.3153H5.97415V7.72994L11 5.17611L16.0107 7.71624L16.0259 8.70217V17.3153ZM21.2414 17.3153H16.7693V9.04793H21.2414V17.3153Z" fill="#868E9D"/>
    <path d="M11.0001 6.22363C10.1217 6.22552 9.41077 6.86868 9.41077 7.66144C9.41285 8.45365 10.1261 9.09428 11.0039 9.0924C11.8816 9.09052 12.5915 8.4468 12.5894 7.65459C12.5873 6.86376 11.8763 6.22363 11.0001 6.22363ZM11.0001 8.40773C10.5413 8.40585 10.1711 8.06865 10.1732 7.65459C10.1753 7.24323 10.5442 6.91019 11.0001 6.9083C11.4595 6.91019 11.8308 7.24683 11.8308 7.66144H11.8346C11.8325 8.07549 11.4589 8.40961 11.0001 8.40773Z" fill="#868E9D"/>
    <path d="M2.43123 9.80103H1.67261V11.1704H2.43123V9.80103Z" fill="#868E9D"/>
    <path d="M4.30147 9.80103H3.54285V11.1704H4.30147V9.80103Z" fill="#868E9D"/>
    <path d="M8.64456 9.80103H7.12732V10.4857H8.64456V9.80103Z" fill="#868E9D"/>
    <path d="M11.7586 9.80103H10.2413V10.4857H11.7586V9.80103Z" fill="#868E9D"/>
    <path d="M14.8728 9.80103H13.3556V10.4857H14.8728V9.80103Z" fill="#868E9D"/>
    <path d="M8.64456 11.3964H7.12732V12.081H8.64456V11.3964Z" fill="#868E9D"/>
    <path d="M11.7586 11.3964H10.2413V12.081H11.7586V11.3964Z" fill="#868E9D"/>
    <path d="M14.8728 11.3964H13.3556V12.081H14.8728V11.3964Z" fill="#868E9D"/>
    <path d="M2.43123 12.4954H1.67261V13.8647H2.43123V12.4954Z" fill="#868E9D"/>
    <path d="M4.30147 12.4954H3.54285V13.8647H4.30147V12.4954Z" fill="#868E9D"/>
    <path d="M2.43123 15.1929H1.67261V16.5622H2.43123V15.1929Z" fill="#868E9D"/>
    <path d="M4.30147 15.1929H3.54285V16.5622H4.30147V15.1929Z" fill="#868E9D"/>
    <path d="M18.4572 9.80103H17.6986V11.1704H18.4572V9.80103Z" fill="#868E9D"/>
    <path d="M20.3272 9.80103H19.5686V11.1704H20.3272V9.80103Z" fill="#868E9D"/>
    <path d="M18.4572 12.4954H17.6986V13.8647H18.4572V12.4954Z" fill="#868E9D"/>
    <path d="M20.3272 12.4954H19.5686V13.8647H20.3272V12.4954Z" fill="#868E9D"/>
    <path d="M18.4572 15.1929H17.6986V16.5622H18.4572V15.1929Z" fill="#868E9D"/>
    <path d="M20.3272 15.1929H19.5686V16.5622H20.3272V15.1929Z" fill="#868E9D"/>
</svg>
