<svg width="34" height="34" viewBox="0 0 34 34" fill="none" xmlns="http://www.w3.org/2000/svg">
<path d="M23.9585 15.812H18.3179V10.1714C18.3179 10.0081 18.1843 9.87451 18.021 9.87451H16.2397C16.0765 9.87451 15.9429 10.0081 15.9429 10.1714V15.812H10.3022C10.139 15.812 10.0054 15.9456 10.0054 16.1089V17.8901C10.0054 18.0534 10.139 18.187 10.3022 18.187H15.9429V23.8276C15.9429 23.9909 16.0765 24.1245 16.2397 24.1245H18.021C18.1843 24.1245 18.3179 23.9909 18.3179 23.8276V18.187H23.9585C24.1218 18.187 24.2554 18.0534 24.2554 17.8901V16.1089C24.2554 15.9456 24.1218 15.812 23.9585 15.812Z" fill="white"/>
<path d="M17.1304 0.374512C7.94951 0.374512 0.505371 7.81865 0.505371 16.9995C0.505371 26.1804 7.94951 33.6245 17.1304 33.6245C26.3112 33.6245 33.7554 26.1804 33.7554 16.9995C33.7554 7.81865 26.3112 0.374512 17.1304 0.374512ZM17.1304 30.8042C9.50811 30.8042 3.32568 24.6218 3.32568 16.9995C3.32568 9.37725 9.50811 3.19482 17.1304 3.19482C24.7526 3.19482 30.9351 9.37725 30.9351 16.9995C30.9351 24.6218 24.7526 30.8042 17.1304 30.8042Z" fill="#91E5E5"/>
</svg>
